<?xml version="1.0"?>
<svg version="1.1" xmlns="http://www.w3.org/2000/svg" width="400px" height="200px" style="border: dashed 2px #aaa"><path fill="#32c2c7" d="M51.75732421875,120.31005859375q0-6.25146484375,0.561767578125-12.517333984375t2.347900390625-12.344482421875q0.5185546875-1.81494140625,1.35400390625-3.586669921875t2.04541015625-3.154541015625t2.880859375-2.2470703125t3.9755859375-0.8642578125l0.60498046875,0.0576171875q2.4775390625,0.345703125,3.65869140625,2.002197265625t1.18115234375,4.134033203125q0,0.66259765625-0.158447265625,1.656494140625t-0.504150390625,1.915771484375t-0.936279296875,1.570068359375t-1.483642578125,0.648193359375q-0.4033203125-0.0576171875-0.734619140625-0.14404296875t-0.619384765625-0.37451171875q0.4609375-1.00830078125,0.821044921875-2.10302734375t0.360107421875-2.50634765625q0-0.5185546875-0.08642578125-1.3251953125t-0.331298828125-1.598876953125t-0.648193359375-1.3828125t-1.12353515625-0.590576171875q-1.81494140625,0-3.0537109375,2.031005859375t-2.07421875,5.185546875t-1.23876953125,6.9716796875t-0.619384765625,7.375t-0.244873046875,6.42431640625t-0.02880859375,4.047607421875q0,1.3828125-0.02880859375,3.0537109375l0,0.37451171875q0.02880859375,1.46923828125,0.20166015625,2.79443359375q0.23046875,1.498046875,0.89306640625,2.5927734375t2.07421875,1.267578125q0.43212890625,0.0576171875,0.83544921875,0.0576171875q1.6708984375,0,3.02490234375-0.95068359375q1.6708984375-1.18115234375,2.96728515625-3.068115234375t2.3046875-4.1484375t1.858154296875-4.278076171875t1.656494140625-3.341796875t1.6708984375-1.3251953125q0.2880859375,0,0.8642578125,0.115234375t0.576171875,0.54736328125q0,0.115234375-0.0576171875,0.31689453125t-0.14404296875,0.31689453125q-0.77783203125,3.0537109375-1.973388671875,6.337890625t-3.0537109375,5.977783203125t-4.5517578125,4.393310546875t-6.467529296875,1.69970703125q-2.7080078125,0-4.393310546875-1.022705078125t-2.5927734375-2.73681640625t-1.23876953125-3.874755859375t-0.331298828125-4.37890625z M82.457778320312,121.89453125l0-2.7080078125q0-1.46923828125,0.072021484375-4.162841796875t0.187255859375-5.90576171875t0.31689453125-6.697998046875t0.4609375-6.582763671875t0.619384765625-5.545654296875t0.821044921875-3.6298828125q0.2880859375-0.66259765625,0.95068359375-0.83544921875t1.29638671875-0.1728515625q1.00830078125,0,1.771728515625,0.446533203125t0.763427734375,1.627685546875l-0.5185546875,0.576171875q-1.00830078125,6.65478515625-1.29638671875,13.3671875t-0.4033203125,13.4248046875q0.72021484375-1.12353515625,1.627685546875-2.203857421875t2.0166015625-1.915771484375t2.39111328125-1.339599609375t2.808837890625-0.504150390625q1.958984375,0,3.240966796875,1.18115234375t2.117431640625,3.068115234375t1.23876953125,4.220458984375t0.619384765625,4.6669921875t0.302490234375,4.422119140625t0.25927734375,3.471435546875q-0.54736328125,0.7490234375-1.61328125,0.7490234375l-0.08642578125,0q-0.4609375,0-1.00830078125-0.115234375t-0.72021484375-0.576171875l0.0576171875,0.0576171875q-0.4033203125-0.89306640625-0.54736328125-2.578369140625t-0.23046875-3.71630859375t-0.302490234375-4.162841796875t-0.648193359375-3.8603515625t-1.267578125-2.85205078125t-2.2470703125-1.18115234375l-0.1728515625,0q-1.69970703125,0-2.85205078125,1.037109375q-1.2099609375,1.0947265625-1.958984375,2.880859375t-1.15234375,3.9755859375t-0.619384765625,4.220458984375t-0.331298828125,3.6875t-0.2880859375,2.434326171875q-0.1728515625,0.66259765625-1.022705078125,0.878662109375t-1.454833984375,0.216064453125q-1.41162109375,0-2.3046875-0.806640625q-0.66259765625-1.58447265625-0.77783203125-3.94677734375t-0.115234375-4.609375z M110.01809570312,118.75439453125q0-1.958984375,0.532958984375-3.77392578125t1.598876953125-3.240966796875t2.664794921875-2.27587890625t3.701904296875-0.849853515625q1.29638671875,0,2.866455078125,0.388916015625t2.952880859375,1.15234375t2.3046875,1.944580078125t0.921875,2.7080078125q0,0.72021484375-0.244873046875,1.0947265625t-0.993896484375,0.37451171875l-0.31689453125-0.0576171875q0.83544921875,2.2470703125,1.4404296875,4.609375t1.18115234375,4.724609375q0.23046875,0.4609375,0.345703125,0.821044921875t0.115234375,0.705810546875q0,0.4609375-0.25927734375,0.763427734375t-0.677001953125,0.446533203125t-0.8642578125,0.20166015625t-0.792236328125,0.0576171875q-1.23876953125,0-1.858154296875-0.43212890625t-0.89306640625-1.18115234375t-0.331298828125-1.685302734375t-0.23046875-1.886962890625q-0.345703125,1.12353515625-0.907470703125,2.189453125t-1.3251953125,1.915771484375t-1.800537109375,1.35400390625t-2.33349609375,0.504150390625q-1.9013671875,0-3.19775390625-1.0947265625t-2.088623046875-2.693603515625t-1.15234375-3.413818359375t-0.360107421875-3.37060546875z M114.10891601562,118.35107421875q0,1.06591796875,0.14404296875,2.2470703125t0.475341796875,2.33349609375t0.849853515625,2.175048828125t1.29638671875,1.800537109375q1.41162109375-1.52685546875,2.088623046875-3.71630859375t1.2099609375-4.220458984375t1.2099609375-3.48583984375t2.088623046875-1.454833984375q0.89306640625,0,1.498046875,0.31689453125q-0.2880859375-0.72021484375-0.95068359375-1.397216796875t-1.483642578125-1.23876953125t-1.69970703125-0.921875t-1.656494140625-0.360107421875q-0.23046875,0-0.532958984375,0.072021484375t-0.475341796875,0.014404296875q-1.18115234375,0.345703125-1.944580078125,1.195556640625t-1.23876953125,2.002197265625t-0.677001953125,2.3623046875t-0.20166015625,2.27587890625z M133.80448730469,100.4609375q0-0.4033203125,0.8642578125-0.69140625t1.958984375-0.475341796875t2.117431640625-0.273681640625t1.397216796875-0.14404296875q0-0.77783203125,0.0576171875-1.570068359375t0.31689453125-1.41162109375t0.821044921875-0.993896484375t1.570068359375-0.37451171875q0.83544921875,0,1.267578125,0.20166015625t0.921875,0.83544921875q0.115234375,0.345703125,0.115234375,0.66259765625l0,0.965087890625t-0.0576171875,0.993896484375q1.06591796875-0.115234375,2.117431640625-0.273681640625t2.117431640625-0.158447265625q0.77783203125,0,1.06591796875,0.02880859375t0.576171875,0.69140625q0.23046875,0.66259765625-0.561767578125,1.00830078125t-1.9013671875,0.5185546875t-2.203857421875,0.25927734375t-1.3251953125,0.08642578125q-0.345703125,4.955078125-0.705810546875,9.82373046875t-0.360107421875,9.88134765625q0,2.2470703125,0.14404296875,4.63818359375t0.806640625,4.52294921875q0.1728515625,0.66259765625,0.576171875,1.23876953125t0.4033203125,1.23876953125q0,0.4033203125-0.31689453125,0.6337890625t-0.763427734375,0.388916015625t-0.89306640625,0.187255859375t-0.734619140625,0.02880859375q-1.81494140625,0-2.765625-1.35400390625t-1.368408203125-3.240966796875t-0.446533203125-3.874755859375t-0.02880859375-3.2265625q0-2.53515625,0.100830078125-5.185546875t0.244873046875-5.2431640625t0.4033203125-5.0703125t0.60498046875-4.609375q-1.00830078125,0.115234375-1.973388671875,0.25927734375t-1.973388671875,0.14404296875q-0.23046875,0-0.619384765625-0.02880859375t-0.734619140625-0.14404296875t-0.590576171875-0.31689453125t-0.244873046875-0.576171875z M167.05939941406,85.91259765625q0-0.576171875,0.89306640625-0.821044921875t1.46923828125-0.244873046875q0.66259765625,0,1.454833984375,0.1728515625t0.965087890625,0.89306640625q0.83544921875,3.37060546875,1.281982421875,6.870849609375t0.677001953125,7.043701171875t0.37451171875,7.043701171875t0.31689453125,6.928466796875q0.77783203125-3.42822265625,1.598876953125-6.813232421875t2.146240234375-6.755615234375l0-2.3046875q0-1.46923828125,1.022705078125-2.117431640625t2.751220703125-0.648193359375q0.1728515625,0,0.792236328125,0.08642578125t0.619384765625,0.576171875q-0.115234375,0.345703125-0.273681640625,0.66259765625t-0.158447265625,0.69140625q0,4.37890625,1.037109375,8.973876953125t2.04541015625,8.945068359375q0.576171875-3.71630859375,1.3251953125-7.40380859375t1.5556640625-7.34619140625q1.06591796875-4.8974609375,1.627685546875-8.138427734375t1.06591796875-5.1279296875t1.0947265625-2.67919921875t1.656494140625-0.792236328125q0.66259765625-0.0576171875,1.23876953125,0.23046875t0.4609375,0.95068359375q-2.07421875,10.025390625-3.874755859375,20.1083984375t-3.673095703125,20.166015625q0,0.576171875,0.20166015625,1.35400390625t0.20166015625,1.3828125q0,0.345703125-0.31689453125,0.576171875t-0.763427734375,0.388916015625t-0.9794921875,0.216064453125t-0.936279296875,0.0576171875q-0.89306640625,0-1.87255859375-0.273681640625t-1.267578125-1.570068359375q-1.00830078125-4.494140625-1.858154296875-9.031494140625t-1.570068359375-9.146728515625q-0.23046875,1.06591796875-0.43212890625,2.16064453125t-0.37451171875,2.21826171875q-0.83544921875,4.8974609375-1.84375,9.794921875t-1.00830078125,9.91015625q0,1.23876953125-0.5185546875,1.598876953125t-1.75732421875,0.360107421875q-0.95068359375,0-1.61328125-0.31689453125q-0.5185546875-0.2880859375-0.9794921875-0.5185546875q-0.4033203125-0.23046875-0.734619140625-0.532958984375t-0.331298828125-0.590576171875q-0.4609375-6.25146484375-0.648193359375-12.41650390625t-0.417724609375-12.41650390625q-0.23046875-5.61767578125-0.677001953125-11.220947265625t-0.993896484375-11.134521484375z M202.05233398437,118.06298828125q0-2.650390625,0.619384765625-5.199951171875t1.051513671875-5.084716796875q0.115234375-0.66259765625,0.907470703125-0.821044921875t1.339599609375-0.158447265625q0.95068359375,0,1.52685546875,0.2880859375q0.23046875,0.115234375,0.43212890625,0.25927734375t0.20166015625,0.37451171875q0,2.4775390625-0.590576171875,4.83984375t-0.590576171875,5.0126953125q0,0.89306640625,0.129638671875,1.685302734375t0.244873046875,1.570068359375l0.1728515625,0.83544921875q0,0.23046875,0.02880859375,0.4033203125t0.08642578125,0.4033203125q0,0.5185546875-0.734619140625,0.705810546875t-1.281982421875,0.187255859375q-0.83544921875,0-1.541259765625-0.331298828125t-1.109130859375-1.137939453125l-0.4033203125-0.83544921875q-0.345703125-0.66259765625-0.345703125-1.483642578125t-0.14404296875-1.512451171875z M203.89608398437,100.72021484375l0-0.54736328125q0-1.35400390625,0.677001953125-2.419921875t2.031005859375-1.06591796875q0.1728515625,0,0.331298828125,0.02880859375t0.331298828125,0.02880859375q0.345703125,0.0576171875,0.907470703125,0.273681640625t0.561767578125,0.677001953125l0,0.0576171875q-0.115234375,0.23046875-0.14404296875,0.475341796875t-0.14404296875,0.417724609375l0.0576171875-0.0576171875q-0.345703125,0.89306640625-0.561767578125,1.4404296875t-0.475341796875,0.878662109375t-0.648193359375,0.475341796875t-1.109130859375,0.14404296875q-0.115234375,0-0.4033203125-0.02880859375t-0.619384765625-0.115234375t-0.561767578125-0.23046875t-0.23046875-0.43212890625z M213.45103027344,100.4609375q0-0.4033203125,0.8642578125-0.69140625t1.958984375-0.475341796875t2.117431640625-0.273681640625t1.397216796875-0.14404296875q0-0.77783203125,0.0576171875-1.570068359375t0.31689453125-1.41162109375t0.821044921875-0.993896484375t1.570068359375-0.37451171875q0.83544921875,0,1.267578125,0.20166015625t0.921875,0.83544921875q0.115234375,0.345703125,0.115234375,0.66259765625l0,0.965087890625t-0.0576171875,0.993896484375q1.06591796875-0.115234375,2.117431640625-0.273681640625t2.117431640625-0.158447265625q0.77783203125,0,1.06591796875,0.02880859375t0.576171875,0.69140625q0.23046875,0.66259765625-0.561767578125,1.00830078125t-1.9013671875,0.5185546875t-2.203857421875,0.25927734375t-1.3251953125,0.08642578125q-0.345703125,4.955078125-0.705810546875,9.82373046875t-0.360107421875,9.88134765625q0,2.2470703125,0.14404296875,4.63818359375t0.806640625,4.52294921875q0.1728515625,0.66259765625,0.576171875,1.23876953125t0.4033203125,1.23876953125q0,0.4033203125-0.31689453125,0.6337890625t-0.763427734375,0.388916015625t-0.89306640625,0.187255859375t-0.734619140625,0.02880859375q-1.81494140625,0-2.765625-1.35400390625t-1.368408203125-3.240966796875t-0.446533203125-3.874755859375t-0.02880859375-3.2265625q0-2.53515625,0.100830078125-5.185546875t0.244873046875-5.2431640625t0.4033203125-5.0703125t0.60498046875-4.609375q-1.00830078125,0.115234375-1.973388671875,0.25927734375t-1.973388671875,0.14404296875q-0.23046875,0-0.619384765625-0.02880859375t-0.734619140625-0.14404296875t-0.590576171875-0.31689453125t-0.244873046875-0.576171875z M235.48009765625,121.89453125l0-2.7080078125q0-1.46923828125,0.072021484375-4.162841796875t0.187255859375-5.90576171875t0.31689453125-6.697998046875t0.4609375-6.582763671875t0.619384765625-5.545654296875t0.821044921875-3.6298828125q0.2880859375-0.66259765625,0.95068359375-0.83544921875t1.29638671875-0.1728515625q1.00830078125,0,1.771728515625,0.446533203125t0.763427734375,1.627685546875l-0.5185546875,0.576171875q-1.00830078125,6.65478515625-1.29638671875,13.3671875t-0.4033203125,13.4248046875q0.72021484375-1.12353515625,1.627685546875-2.203857421875t2.0166015625-1.915771484375t2.39111328125-1.339599609375t2.808837890625-0.504150390625q1.958984375,0,3.240966796875,1.18115234375t2.117431640625,3.068115234375t1.23876953125,4.220458984375t0.619384765625,4.6669921875t0.302490234375,4.422119140625t0.25927734375,3.471435546875q-0.54736328125,0.7490234375-1.61328125,0.7490234375l-0.08642578125,0q-0.4609375,0-1.00830078125-0.115234375t-0.72021484375-0.576171875l0.0576171875,0.0576171875q-0.4033203125-0.89306640625-0.54736328125-2.578369140625t-0.23046875-3.71630859375t-0.302490234375-4.162841796875t-0.648193359375-3.8603515625t-1.267578125-2.85205078125t-2.2470703125-1.18115234375l-0.1728515625,0q-1.69970703125,0-2.85205078125,1.037109375q-1.2099609375,1.0947265625-1.958984375,2.880859375t-1.15234375,3.9755859375t-0.619384765625,4.220458984375t-0.331298828125,3.6875t-0.2880859375,2.434326171875q-0.1728515625,0.66259765625-1.022705078125,0.878662109375t-1.454833984375,0.216064453125q-1.41162109375,0-2.3046875-0.806640625q-0.66259765625-1.58447265625-0.77783203125-3.94677734375t-0.115234375-4.609375z M274.32387695313,124.8330078125q-0.02880859375-0.8642578125-0.02880859375-1.728515625q0-2.7080078125,0.2880859375-5.44482421875q0.345703125-3.6298828125,0.4609375-7.14453125q0.115234375-4.11962890625,0.345703125-8.55615234375q0.14404296875-2.419921875,0.14404296875-4.7822265625q0-1.93017578125-0.08642578125-3.83154296875q0.2880859375-0.66259765625,0.763427734375-0.89306640625t1.195556640625-0.23046875q0.345703125,0,0.734619140625,0.0576171875t0.677001953125,0.2880859375q0.4033203125,0.0576171875,0.993896484375,0.115234375t0.907470703125,0.345703125q0.115234375,0.1728515625,0.590576171875,1.18115234375t1.12353515625,2.44873046875t1.35400390625,3.125732421875t1.35400390625,3.19775390625t1.12353515625,2.664794921875t0.590576171875,1.4404296875q2.7080078125-4.8974609375,5.30078125-10.068603515625t5.67529296875-9.751708984375q0.2880859375-0.4033203125,0.993896484375-0.590576171875t1.166748046875-0.187255859375q1.23876953125,0,1.800537109375,0.590576171875t0.734619140625,1.512451171875q0.115234375,0.576171875,0.14404296875,1.23876953125q0.02880859375,0.345703125-0.02880859375,0.72021484375q-0.115234375,1.06591796875-0.115234375,2.0166015625q0,6.71240234375-0.4609375,13.323974609375t-0.83544921875,13.352783203125q-0.0576171875,1.3828125-0.0576171875,2.880859375t0.0576171875,3.111328125q0.02880859375,0.576171875,0.02880859375,1.12353515625q0,2.53515625-0.43212890625,4.724609375q-0.4033203125,0.66259765625-1.3251953125,0.83544921875t-1.5556640625,0.1728515625q-1.35400390625,0-2.5927734375-0.6337890625l-0.31689453125-0.37451171875l-0.115234375-0.4609375t-0.0576171875-0.4609375q0-4.17724609375,0.302490234375-8.412109375t0.677001953125-8.455322265625t0.792236328125-8.426513671875t0.705810546875-8.412109375q-1.69970703125,2.8232421875-3.298583984375,5.747314453125t-3.010498046875,5.948974609375q-0.5185546875,1.18115234375-0.993896484375,2.53515625t-1.137939453125,2.419921875q-0.345703125,0.5185546875-1.166748046875,0.6337890625t-1.426025390625,0.115234375q-0.576171875,0-1.195556640625-0.20166015625t-0.849853515625-0.8642578125q-1.06591796875-3.25537109375-2.27587890625-6.36669921875t-2.44873046875-6.30908203125q0,2.1318359375,0.08642578125,5.516845703125t0.08642578125,7.014892578125t-0.115234375,6.94287109375t-0.54736328125,5.2431640625q-0.115234375,0.72021484375-0.936279296875,0.89306640625t-1.426025390625,0.1728515625q-0.4609375,0-0.878662109375-0.0576171875t-0.821044921875-0.23046875z M308.53897949219,119.935546875q0-2.0166015625,0.446533203125-4.75341796875t1.512451171875-5.185546875t2.808837890625-4.162841796875t4.393310546875-1.714111328125q2.4775390625,0,3.71630859375,1.426025390625t1.23876953125,3.845947265625q0,1.58447265625-0.590576171875,3.471435546875t-1.685302734375,3.572265625t-2.5927734375,2.808837890625t-3.341796875,1.12353515625l-0.7490234375-0.0576171875q0,0.77783203125,0.23046875,2.088623046875t0.677001953125,2.607177734375t1.15234375,2.27587890625t1.714111328125,0.9794921875q1.46923828125,0,2.8232421875-1.18115234375t2.56396484375-2.62158203125t2.2470703125-2.62158203125t1.9013671875-1.18115234375q0.4609375,0,0.95068359375,0.14404296875t0.54736328125,0.806640625q0,0.4033203125-0.216064453125,0.66259765625t-0.388916015625,0.576171875q-0.89306640625,1.52685546875-1.944580078125,2.90966796875t-2.376708984375,2.50634765625t-2.895263671875,1.771728515625t-3.471435546875,0.648193359375q-2.4775390625,0-4.11962890625-0.878662109375t-2.650390625-2.3623046875t-1.454833984375-3.42822265625t-0.446533203125-4.076416015625z M313.69571777344,117.74609375l0.806640625,0.72021484375q0.576171875,0.5185546875,1.15234375,0.23046875t1.037109375-1.051513671875t0.849853515625-1.886962890625t0.69140625-2.3046875t0.446533203125-2.3046875t0.14404296875-1.87255859375l0-0.9794921875t-0.08642578125-1.037109375t-0.302490234375-0.821044921875t-0.677001953125-0.417724609375q-0.14404296875-0.02880859375-0.25927734375-0.02880859375q-0.9794921875,0-1.6708984375,1.23876953125q-0.7490234375,1.3828125-1.2099609375,3.356201171875t-0.66259765625,4.047607421875t-0.25927734375,3.111328125z"/><path fill="#" d=""/></svg>
